<svg xmlns:xlink="http://www.w3.org/1999/xlink" xmlns="http://www.w3.org/2000/svg" version="1.1" viewBox="0.0 0.0 960.0 320.0" fill="none" stroke="none" stroke-linecap="square" stroke-miterlimit="10">
  <clipPath id="p.0">
    <path stroke="#662c91" d="m0 0l960.0 0l0 720.0l-960.0 0l0 -720.0z" clip-rule="nonzero"/></clipPath>
  <g clip-path="url(#p.0)">
    <path
      stroke="#662c91"
      fill="#662c91"
      fill-opacity="0.0"
      d="m432.5092 30.530184c11.024506 8.763342 66.99518 31.661417 66.14697 52.580055c-0.84820557 20.918633 -70.105865 47.207344 -71.236206 72.931755c-1.1303711 25.724411 65.30182 57.527557 64.45407 81.4147c-0.8477783 23.887146 -57.95056 51.59012 -69.54068 61.908142"
      fill-rule="evenodd"/>
    <path
      stroke="#662c91"
      stroke-width="4.0"
      stroke-linejoin="round"
      stroke-linecap="butt"
      d="m432.5092 30.530184c11.024475 8.763342 66.99521 31.661417 66.14697 52.580055c-0.84820557 20.918633 -70.105835 47.207344 -71.236206 72.931755c-1.1303711 25.724411 65.30182 57.527557 64.45407 81.4147c-0.42388916 11.943573 -14.91156 24.841095 -30.741974 36.04248c-3.9575806 2.800354 -7.9991455 5.49469 -11.925842 8.041595c-1.9633484 1.273468 -3.8979797 2.5100708 -5.7790527 3.7046509l-2.4255676 1.5362549"
      fill-rule="evenodd"/>
    <path stroke="#662c91" stroke-width="4.0" stroke-linecap="butt" d="m441.00162 286.78168l-11.611542 -0.2064209l-4.165344 10.840668l11.611511 0.2064209z" fill-rule="evenodd"/>
  </g>
</svg>
